<?xml version="1.0" encoding="UTF-8"?>
<!-- Generator: Adobe Illustrator 16.0.0, SVG Export Plug-In . SVG Version: 6.00 Build 0)  -->
<!DOCTYPE svg PUBLIC "-//W3C//DTD SVG 1.1//EN" "http://www.w3.org/Graphics/SVG/1.1/DTD/svg11.dtd">
<svg version="1.1" xmlns="http://www.w3.org/2000/svg" xmlns:xlink="http://www.w3.org/1999/xlink" x="0px" y="0px" width="694px" height="115px" viewBox="0 0 694 115" enable-background="new 0 0 694 115" xml:space="preserve">
<g id="Source_Font" display="none">
	
		<text transform="matrix(1 0 0 1 191.9985 78.6245)" display="inline" fill="#262424" font-family="'Economica-Bold'" font-size="79.5413">corona-memory.ch</text>
	<path display="inline" fill="#FF00AC" d="M119.438,14.944c-12.069,0-22.95,5.062-30.657,13.171v58.261   c7.708,8.108,18.588,13.171,30.657,13.171c23.362,0,42.301-18.938,42.301-42.302C161.739,33.884,142.8,14.944,119.438,14.944z"/>
	<path display="inline" fill="#5A308D" d="M88.78,28.115c-7.706-8.108-18.586-13.171-30.655-13.171   c-23.363,0-42.302,18.939-42.302,42.301c0,23.363,18.939,42.302,42.302,42.302c12.069,0,22.95-5.062,30.655-13.171V28.115z"/>
	<g display="inline">
		<path fill="#9EC54C" d="M119.676,33.719c-10.769,0-14.558,5.463-14.558,5.463c-4.442,6.406-11.794,11.647-16.337,11.647    c-4.543,0-11.895-5.241-16.337-11.647c0,0-3.789-5.463-14.557-5.463c-12.994,0-23.527,10.532-23.527,23.526    s10.533,23.527,23.527,23.527c10.768,0,14.557-5.464,14.557-5.464c4.442-6.406,11.793-11.647,16.337-11.647    c4.543,0,11.895,5.241,16.336,11.647c0,0,3.789,5.464,14.558,5.464c12.994,0,23.526-10.533,23.526-23.527    S132.669,33.719,119.676,33.719z"/>
	</g>
</g>
<g id="Color_Vectorized_1_">
	<g>
		<path fill="#262424" d="M207.51,42.114c-4.853,0-4.853,4.057-4.853,14.954c0,10.739,0,15.352,4.853,15.352    c3.261,0,5.488-1.034,8.67-1.591v6.205c-3.182,0.716-5.409,2.147-8.67,2.147c-11.932,0-11.932-6.284-11.932-22.113    c0-15.59,0-21.715,11.932-21.715l8.988,1.909c-0.875,6.125-0.955,6.125-5.966,5.409L207.51,42.114z"/>
		<path fill="#262424" d="M234.395,35.353c12.33,0,12.33,5.966,12.33,21.715c0,15.75-0.08,22.113-12.33,22.113    c-12.17,0-12.25-6.284-12.25-22.113C222.145,41.239,222.225,35.353,234.395,35.353z M229.224,57.068    c0,10.977,0,15.352,5.17,15.352s5.17-4.375,5.17-15.352c0-10.818,0-14.954-5.17-14.954S229.224,46.25,229.224,57.068z"/>
		<path fill="#262424" d="M261.835,78.625c-7.159,0-7.159,0-7.159-4.772V35.909c7,0,7,0,7,2.466l5.091-3.022    c1.829,0,3.261,0.239,4.216,0.477l1.272,0.08c0,6.045-0.159,6.205-4.693,6.205l-6.523,2.227l0.795,2.228V78.625z"/>
		<path fill="#262424" d="M288.48,35.353c12.33,0,12.33,5.966,12.33,21.715c0,15.75-0.08,22.113-12.33,22.113    c-12.17,0-12.25-6.284-12.25-22.113C276.231,41.239,276.311,35.353,288.48,35.353z M283.31,57.068c0,10.977,0,15.352,5.17,15.352    s5.17-4.375,5.17-15.352c0-10.818,0-14.954-5.17-14.954S283.31,46.25,283.31,57.068z"/>
		<path fill="#262424" d="M315.842,78.625c-7.079,0-7.079,0-7.079-4.772V35.909c5.727,0,6.92,0,7.079,1.67l5.887-2.227    c11.295,0,11.693,2.386,11.693,22.113v21.159c-7.159,0-7.159,0-7.159-4.772V57.386c0-12.807,0.795-15.113-3.818-15.272    l-7.318,2.148l0.716,2.227V78.625z"/>
		<path fill="#262424" d="M356.01,45.773c0-2.943,0.716-4.216-2.784-3.739l-4.296,0.557c-5.011,0.716-5.09,0.716-5.965-5.409    l9.227-1.83c10.5,0,10.42,2.466,10.42,10.977v32.295c-6.124,0-6.999-0.318-7.078-2.784l-6.604,3.341    c-7.715,0-7.954-0.477-7.954-14.795v-5.489c0-7.557,8.67-9.147,15.67-9.307l-0.637-1.909V45.773z M355.691,57.625l0.637-1.83    c-3.898,0.08-8.193,0.795-8.193,2.147l-0.08,10.5c0,2.545,0.08,3.977,0.398,3.977c0,0,0.08,0,8.034-3.022l-0.796-2.307V57.625z"/>
		<path fill="#262424" d="M388.463,49.75v6.522H369.77V49.75H388.463z"/>
		<path fill="#262424" d="M420.278,78.625c-7.079,0-7.079,0-7.079-4.772l-0.079-19.488c-0.08-7.875,0.875-12.17-3.182-12.25    l-7.08,2.068l0.716,2.307v32.136c-7.079,0-7.079,0-7.079-4.772V35.909c5.329,0,6.682,0,7,1.67l5.966-2.227    c4.693,0,6.682,0.636,8.591,2.864l7.317-2.864c11.375,0,11.614,2.625,11.614,22.113v21.159c-7.159,0-7.159,0-7.159-4.772V57.386    c0-13.204,0.636-14.954-4.057-15.272l-6.205,1.83l0.716,2.227V78.625z"/>
		<path fill="#262424" d="M451.061,58.341l0.636,1.83c0,9.625,0,12.25,5.25,12.25c3.897,0,7.079-0.238,10.978-0.795v6.205    c-3.898,0.716-7,1.352-10.978,1.352c-12.091,0-12.329-5.886-12.329-20.045c0-17.42-0.875-23.784,12.329-23.784    c10.341,0,11.137,7.318,11.216,17.182l0.238,5.409L451.061,58.341z M451.458,51.5h10.42l-0.795-1.75    c-0.08-5.409-0.558-7.636-4.137-7.636c-4.375,0-4.853,1.432-4.853,7.636L451.458,51.5z"/>
		<path fill="#262424" d="M499.263,78.625c-7.079,0-7.079,0-7.079-4.772l-0.079-19.488c-0.08-7.875,0.875-12.17-3.182-12.25    l-7.08,2.068l0.716,2.307v32.136c-7.079,0-7.079,0-7.079-4.772V35.909c5.329,0,6.682,0,7,1.67l5.966-2.227    c4.693,0,6.682,0.636,8.591,2.864l7.317-2.864c11.375,0,11.614,2.625,11.614,22.113v21.159c-7.159,0-7.159,0-7.159-4.772V57.386    c0-13.204,0.636-14.954-4.057-15.272l-6.205,1.83l0.716,2.227V78.625z"/>
		<path fill="#262424" d="M535.771,35.353c12.329,0,12.329,5.966,12.329,21.715c0,15.75-0.079,22.113-12.329,22.113    c-12.17,0-12.25-6.284-12.25-22.113C523.521,41.239,523.602,35.353,535.771,35.353z M530.602,57.068    c0,10.977,0,15.352,5.17,15.352c5.171,0,5.171-4.375,5.171-15.352c0-10.818,0-14.954-5.171-14.954    C530.602,42.114,530.602,46.25,530.602,57.068z"/>
		<path fill="#262424" d="M563.213,78.625c-7.159,0-7.159,0-7.159-4.772V35.909c7,0,7,0,7,2.466l5.091-3.022    c1.829,0,3.261,0.239,4.216,0.477l1.272,0.08c0,6.045-0.159,6.205-4.693,6.205l-6.522,2.227l0.796,2.228V78.625z"/>
		<path fill="#262424" d="M595.426,35.909c5.171,0,6.522,0,6.522,2.545l-8.432,41.443c-1.432,7.159-2.704,13.602-15.113,13.602    v-5.727c4.216,0,7.478-3.102,7.478-6.443c0-0.318,0-0.636-0.08-1.034l-8.988-44.386c7.159,0,7.318,0,8.034,4.534l4.534,28.636    h1.192L595.426,35.909z"/>
		<path fill="#262424" d="M610.776,69.159c2.546,0,4.772,1.989,4.772,4.693c0,2.545-2.227,4.772-4.772,4.772    c-2.545,0-4.772-2.227-4.772-4.772C606.004,71.147,608.231,69.159,610.776,69.159z"/>
		<path fill="#262424" d="M633.524,42.114c-4.852,0-4.852,4.057-4.852,14.954c0,10.739,0,15.352,4.852,15.352    c3.262,0,5.489-1.034,8.671-1.591v6.205c-3.182,0.716-5.409,2.147-8.671,2.147c-11.932,0-11.932-6.284-11.932-22.113    c0-15.59,0-21.715,11.932-21.715l8.989,1.909c-0.875,6.125-0.955,6.125-5.966,5.409L633.524,42.114z"/>
		<path fill="#262424" d="M656.433,73.852c0,4.772,0,4.772-7.08,4.772V21.353c7,0,7,0,7,4.853V37.5l6.204-2.147    c11.534,0,11.534,6.363,11.534,22.113v21.159c-7.159,0-7.159,0-7.159-4.772V57.386c0-9.705,0-15.113-3.897-15.272l-7.318,2.148    l0.717,2.227V73.852z"/>
	</g>
	<path fill="#FF00AC" d="M119.438,14.944c-12.069,0-22.95,5.062-30.657,13.171v58.261c7.708,8.108,18.588,13.171,30.657,13.171   c23.362,0,42.301-18.938,42.301-42.302C161.739,33.884,142.8,14.944,119.438,14.944z"/>
	<path fill="#5A308D" d="M88.78,28.115c-7.706-8.108-18.586-13.171-30.655-13.171c-23.363,0-42.302,18.939-42.302,42.301   c0,23.363,18.939,42.302,42.302,42.302c12.069,0,22.95-5.062,30.655-13.171V28.115z"/>
	<path fill="#9EC54C" d="M119.676,33.719c-10.769,0-14.558,5.463-14.558,5.463c-4.442,6.406-11.794,11.647-16.337,11.647   c-4.543,0-11.895-5.241-16.337-11.647c0,0-3.789-5.463-14.557-5.463c-12.994,0-23.527,10.532-23.527,23.526   s10.533,23.527,23.527,23.527c10.768,0,14.557-5.464,14.557-5.464c4.442-6.406,11.793-11.647,16.337-11.647   c4.543,0,11.895,5.241,16.336,11.647c0,0,3.789,5.464,14.558,5.464c12.994,0,23.526-10.533,23.526-23.527   S132.669,33.719,119.676,33.719z"/>
</g>
<g id="BW_Vectorized" display="none">
	<g display="inline">
		<path fill="#262424" d="M207.51,42.114c-4.853,0-4.853,4.057-4.853,14.954c0,10.739,0,15.352,4.853,15.352    c3.261,0,5.488-1.034,8.67-1.591v6.205c-3.182,0.716-5.409,2.147-8.67,2.147c-11.932,0-11.932-6.284-11.932-22.113    c0-15.59,0-21.715,11.932-21.715l8.988,1.909c-0.875,6.125-0.955,6.125-5.966,5.409L207.51,42.114z"/>
		<path fill="#262424" d="M234.395,35.353c12.33,0,12.33,5.966,12.33,21.715c0,15.75-0.08,22.113-12.33,22.113    c-12.17,0-12.25-6.284-12.25-22.113C222.145,41.239,222.225,35.353,234.395,35.353z M229.224,57.068    c0,10.977,0,15.352,5.17,15.352s5.17-4.375,5.17-15.352c0-10.818,0-14.954-5.17-14.954S229.224,46.25,229.224,57.068z"/>
		<path fill="#262424" d="M261.835,78.625c-7.159,0-7.159,0-7.159-4.772V35.909c7,0,7,0,7,2.466l5.091-3.022    c1.829,0,3.261,0.239,4.216,0.477l1.272,0.08c0,6.045-0.159,6.205-4.693,6.205l-6.523,2.227l0.795,2.228V78.625z"/>
		<path fill="#262424" d="M288.48,35.353c12.33,0,12.33,5.966,12.33,21.715c0,15.75-0.08,22.113-12.33,22.113    c-12.17,0-12.25-6.284-12.25-22.113C276.231,41.239,276.311,35.353,288.48,35.353z M283.31,57.068c0,10.977,0,15.352,5.17,15.352    s5.17-4.375,5.17-15.352c0-10.818,0-14.954-5.17-14.954S283.31,46.25,283.31,57.068z"/>
		<path fill="#262424" d="M315.842,78.625c-7.079,0-7.079,0-7.079-4.772V35.909c5.727,0,6.92,0,7.079,1.67l5.887-2.227    c11.295,0,11.693,2.386,11.693,22.113v21.159c-7.159,0-7.159,0-7.159-4.772V57.386c0-12.807,0.795-15.113-3.818-15.272    l-7.318,2.148l0.716,2.227V78.625z"/>
		<path fill="#262424" d="M356.01,45.773c0-2.943,0.716-4.216-2.784-3.739l-4.296,0.557c-5.011,0.716-5.09,0.716-5.965-5.409    l9.227-1.83c10.5,0,10.42,2.466,10.42,10.977v32.295c-6.124,0-6.999-0.318-7.078-2.784l-6.604,3.341    c-7.715,0-7.954-0.477-7.954-14.795v-5.489c0-7.557,8.67-9.147,15.67-9.307l-0.637-1.909V45.773z M355.691,57.625l0.637-1.83    c-3.898,0.08-8.193,0.795-8.193,2.147l-0.08,10.5c0,2.545,0.08,3.977,0.398,3.977c0,0,0.08,0,8.034-3.022l-0.796-2.307V57.625z"/>
		<path fill="#262424" d="M388.463,49.75v6.522H369.77V49.75H388.463z"/>
		<path fill="#262424" d="M420.278,78.625c-7.079,0-7.079,0-7.079-4.772l-0.079-19.488c-0.08-7.875,0.875-12.17-3.182-12.25    l-7.08,2.068l0.716,2.307v32.136c-7.079,0-7.079,0-7.079-4.772V35.909c5.329,0,6.682,0,7,1.67l5.966-2.227    c4.693,0,6.682,0.636,8.591,2.864l7.317-2.864c11.375,0,11.614,2.625,11.614,22.113v21.159c-7.159,0-7.159,0-7.159-4.772V57.386    c0-13.204,0.636-14.954-4.057-15.272l-6.205,1.83l0.716,2.227V78.625z"/>
		<path fill="#262424" d="M451.061,58.341l0.636,1.83c0,9.625,0,12.25,5.25,12.25c3.897,0,7.079-0.238,10.978-0.795v6.205    c-3.898,0.716-7,1.352-10.978,1.352c-12.091,0-12.329-5.886-12.329-20.045c0-17.42-0.875-23.784,12.329-23.784    c10.341,0,11.137,7.318,11.216,17.182l0.238,5.409L451.061,58.341z M451.458,51.5h10.42l-0.795-1.75    c-0.08-5.409-0.558-7.636-4.137-7.636c-4.375,0-4.853,1.432-4.853,7.636L451.458,51.5z"/>
		<path fill="#262424" d="M499.263,78.625c-7.079,0-7.079,0-7.079-4.772l-0.079-19.488c-0.08-7.875,0.875-12.17-3.182-12.25    l-7.08,2.068l0.716,2.307v32.136c-7.079,0-7.079,0-7.079-4.772V35.909c5.329,0,6.682,0,7,1.67l5.966-2.227    c4.693,0,6.682,0.636,8.591,2.864l7.317-2.864c11.375,0,11.614,2.625,11.614,22.113v21.159c-7.159,0-7.159,0-7.159-4.772V57.386    c0-13.204,0.636-14.954-4.057-15.272l-6.205,1.83l0.716,2.227V78.625z"/>
		<path fill="#262424" d="M535.771,35.353c12.329,0,12.329,5.966,12.329,21.715c0,15.75-0.079,22.113-12.329,22.113    c-12.17,0-12.25-6.284-12.25-22.113C523.521,41.239,523.602,35.353,535.771,35.353z M530.602,57.068    c0,10.977,0,15.352,5.17,15.352c5.171,0,5.171-4.375,5.171-15.352c0-10.818,0-14.954-5.171-14.954    C530.602,42.114,530.602,46.25,530.602,57.068z"/>
		<path fill="#262424" d="M563.213,78.625c-7.159,0-7.159,0-7.159-4.772V35.909c7,0,7,0,7,2.466l5.091-3.022    c1.829,0,3.261,0.239,4.216,0.477l1.272,0.08c0,6.045-0.159,6.205-4.693,6.205l-6.522,2.227l0.796,2.228V78.625z"/>
		<path fill="#262424" d="M595.426,35.909c5.171,0,6.522,0,6.522,2.545l-8.432,41.443c-1.432,7.159-2.704,13.602-15.113,13.602    v-5.727c4.216,0,7.478-3.102,7.478-6.443c0-0.318,0-0.636-0.08-1.034l-8.988-44.386c7.159,0,7.318,0,8.034,4.534l4.534,28.636    h1.192L595.426,35.909z"/>
		<path fill="#262424" d="M610.776,69.159c2.546,0,4.772,1.989,4.772,4.693c0,2.545-2.227,4.772-4.772,4.772    c-2.545,0-4.772-2.227-4.772-4.772C606.004,71.147,608.231,69.159,610.776,69.159z"/>
		<path fill="#262424" d="M633.524,42.114c-4.852,0-4.852,4.057-4.852,14.954c0,10.739,0,15.352,4.852,15.352    c3.262,0,5.489-1.034,8.671-1.591v6.205c-3.182,0.716-5.409,2.147-8.671,2.147c-11.932,0-11.932-6.284-11.932-22.113    c0-15.59,0-21.715,11.932-21.715l8.989,1.909c-0.875,6.125-0.955,6.125-5.966,5.409L633.524,42.114z"/>
		<path fill="#262424" d="M656.433,73.852c0,4.772,0,4.772-7.08,4.772V21.353c7,0,7,0,7,4.853V37.5l6.204-2.147    c11.534,0,11.534,6.363,11.534,22.113v21.159c-7.159,0-7.159,0-7.159-4.772V57.386c0-9.705,0-15.113-3.897-15.272l-7.318,2.148    l0.717,2.227V73.852z"/>
	</g>
	<path display="inline" d="M119.438,103.047c-12.665,0-24.453-5.064-33.194-14.259l-0.963-1.014V26.717l0.963-1.014   c8.741-9.195,20.529-14.259,33.194-14.259c25.255,0,45.801,20.546,45.801,45.801C165.239,82.5,144.692,103.047,119.438,103.047z    M92.28,84.944c7.298,7.17,16.888,11.103,27.157,11.103c21.395,0,38.801-17.406,38.801-38.802   c0-21.395-17.406-38.801-38.801-38.801c-10.269,0-19.859,3.932-27.157,11.103V84.944z"/>
	<path display="inline" d="M58.125,103.047c-25.255,0-45.802-20.546-45.802-45.802c0-25.254,20.546-45.801,45.802-45.801   c12.666,0,24.454,5.064,33.192,14.26l0.963,1.013v61.057l-0.963,1.013C82.579,97.982,70.791,103.047,58.125,103.047z    M58.125,18.444c-21.396,0-38.802,17.406-38.802,38.801c0,21.396,17.406,38.802,38.802,38.802c10.27,0,19.859-3.932,27.155-11.103   V29.547C77.984,22.376,68.395,18.444,58.125,18.444z"/>
	<path display="inline" d="M119.676,84.272c-12.248,0-16.939-6.256-17.434-6.97c-4.357-6.284-10.776-10.142-13.46-10.142   s-9.104,3.858-13.461,10.142c-0.495,0.713-5.187,6.97-17.433,6.97c-14.903,0-27.027-12.125-27.027-27.027   c0-14.902,12.125-27.026,27.027-27.026c12.247,0,16.938,6.256,17.433,6.969c4.357,6.283,10.777,10.142,13.461,10.142   s9.104-3.858,13.461-10.142c0.495-0.713,5.186-6.969,17.434-6.969c14.902,0,27.026,12.124,27.026,27.026   C146.702,72.148,134.578,84.272,119.676,84.272z"/>
	<path display="inline" fill="#FFFFFF" d="M88.781,60.161c6.555,0,14.792,6.776,19.212,13.152c0.082,0.104,3.117,3.959,11.682,3.959   c11.042,0,20.026-8.984,20.026-20.027c0-11.042-8.984-20.026-20.026-20.026c-8.565,0-11.6,3.854-11.725,4.019   c-4.379,6.315-12.615,13.092-19.17,13.092c-6.555,0-14.792-6.776-19.213-13.152c-0.082-0.104-3.116-3.958-11.681-3.958   c-11.043,0-20.027,8.984-20.027,20.026c0,11.043,8.984,20.027,20.027,20.027c8.552,0,11.653-3.919,11.681-3.959   C73.989,66.938,82.226,60.161,88.781,60.161z"/>
</g>
</svg>